/* XPM */
static char * smila_icon_48_xpm[] = {
"48 48 256 2",
"  	c None",
". 	c #E4EFDD",
"+ 	c #6DB148",
"@ 	c #4FA025",
"# 	c #50A025",
"$ 	c #51A126",
"% 	c #5EA936",
"& 	c #CFE4C2",
"* 	c #4B9D21",
"= 	c #51A026",
"- 	c #50A125",
"; 	c #4E9F22",
"> 	c #54A328",
", 	c #51A125",
"' 	c #51A025",
") 	c #4B9E1F",
"! 	c #50A124",
"~ 	c #4D9F20",
"{ 	c #4B9F20",
"] 	c #4C9D20",
"^ 	c #4C9E1F",
"/ 	c #459B16",
"( 	c #8BC06E",
"_ 	c #50A026",
": 	c #58A530",
"< 	c #61A93B",
"[ 	c #85BE68",
"} 	c #A1CB89",
"| 	c #A3CD8D",
"1 	c #A2CE8D",
"2 	c #C2DEB2",
"3 	c #FFFDFF",
"4 	c #4E9F23",
"5 	c #54A22A",
"6 	c #93C578",
"7 	c #D2E7C9",
"8 	c #FCFDFC",
"9 	c #FFFFFF",
"0 	c #FEFFFE",
"a 	c #60AB39",
"b 	c #DCEBD3",
"c 	c #FFFEFE",
"d 	c #FEFEFE",
"e 	c #FFFFFE",
"f 	c #4EA023",
"g 	c #67AD42",
"h 	c #FAFCF9",
"i 	c #FFFEFF",
"j 	c #FEFFFF",
"k 	c #4EA022",
"l 	c #6CAF48",
"m 	c #F0F7ED",
"n 	c #FEFEFD",
"o 	c #50A127",
"p 	c #56A22B",
"q 	c #C4DFB6",
"r 	c #FEFEFF",
"s 	c #FFFEFC",
"t 	c #50A020",
"u 	c #6DB04C",
"v 	c #F8FAF6",
"w 	c #F2F6ED",
"x 	c #E9F2E3",
"y 	c #E8F1E2",
"z 	c #E8F1E1",
"A 	c #EFF6EB",
"B 	c #FBFCF9",
"C 	c #4A9E1E",
"D 	c #BCD9AA",
"E 	c #E7EFDE",
"F 	c #B4D097",
"G 	c #9CC174",
"H 	c #9AC173",
"I 	c #9AC174",
"J 	c #9AC074",
"K 	c #9BC275",
"L 	c #C6DCB0",
"M 	c #459A19",
"N 	c #EEF6E9",
"O 	c #FEFEFC",
"P 	c #AECD8F",
"Q 	c #A0C47C",
"R 	c #A1C57C",
"S 	c #A1C57D",
"T 	c #409810",
"U 	c #E8F0E1",
"V 	c #99BF71",
"W 	c #A0C47B",
"X 	c #409811",
"Y 	c #E3ECD8",
"Z 	c #9BC276",
"` 	c #FDFEFD",
" .	c #E4EDD8",
"..	c #A0C47D",
"+.	c #429913",
"@.	c #EEF3E8",
"#.	c #9AC073",
"$.	c #A1C47C",
"%.	c #A0C57C",
"&.	c #479D1A",
"*.	c #DFEDD7",
"=.	c #FAFCF8",
"-.	c #B6D19A",
";.	c #9DC276",
">.	c #9EC379",
",.	c #9EC37A",
"'.	c #9EC378",
").	c #9FC37A",
"!.	c #A0C27B",
"~.	c #A0C27A",
"{.	c #9FC47B",
"].	c #A0C57D",
"^.	c #A1C47D",
"/.	c #50A126",
"(.	c #4E9E1D",
"_.	c #ABD099",
":.	c #F8FAF4",
"<.	c #D1E1BE",
"[.	c #BCD6A1",
"}.	c #BAD5A1",
"|.	c #BBD5A3",
"1.	c #BAD5A2",
"2.	c #B7D29E",
"3.	c #B1D095",
"4.	c #B1D195",
"5.	c #AFCE91",
"6.	c #A2C57E",
"7.	c #99C073",
"8.	c #5FA837",
"9.	c #F5F9F2",
"0.	c #D7E6C7",
"a.	c #ACCA8D",
"b.	c #A2C57F",
"c.	c #9FC37B",
"d.	c #51A227",
"e.	c #B2D5A0",
"f.	c #DEEAD1",
"g.	c #AFCD90",
"h.	c #9DC379",
"i.	c #9FC57D",
"j.	c #58A42F",
"k.	c #E4F1DE",
"l.	c #FAFBF8",
"m.	c #BBD3A0",
"n.	c #9DC278",
"o.	c #A0C37B",
"p.	c #54A12A",
"q.	c #D8ECCF",
"r.	c #B4CF96",
"s.	c #50A024",
"t.	c #53A127",
"u.	c #A1CC8A",
"v.	c #E6F0DF",
"w.	c #E9F0E1",
"x.	c #A3C680",
"y.	c #7EBB60",
"z.	c #BCDAAA",
"A.	c #F3F9EF",
"B.	c #FDFDFE",
"C.	c #FEFFFC",
"D.	c #BED5A3",
"E.	c #9FC47A",
"F.	c #4FA024",
"G.	c #4E9F21",
"H.	c #4A9D1E",
"I.	c #439A1B",
"J.	c #479B1A",
"K.	c #4A9D1C",
"L.	c #499E1C",
"M.	c #499E1B",
"N.	c #499D1D",
"O.	c #4B9E20",
"P.	c #4C9E20",
"Q.	c #489B1C",
"R.	c #78B657",
"S.	c #D4E7C9",
"T.	c #FDFDFB",
"U.	c #E9EFE2",
"V.	c #9CC275",
"W.	c #51A124",
"X.	c #4C9E21",
"Y.	c #54A129",
"Z.	c #E2EEDB",
"`.	c #9EC279",
" +	c #489D1B",
".+	c #AFD59B",
"++	c #ADCE8D",
"@+	c #4A9D1D",
"#+	c #9DCA86",
"$+	c #B2D097",
"%+	c #A0C37A",
"&+	c #499E1E",
"*+	c #9DCA85",
"=+	c #B1D097",
"-+	c #AED29C",
";+	c #AECE93",
">+	c #5CA733",
",+	c #57A32D",
"'+	c #E7F3E0",
")+	c #9EC27C",
"!+	c #C4DEB3",
"~+	c #53A12A",
"{+	c #459A16",
"]+	c #459B17",
"^+	c #459917",
"/+	c #73B350",
"(+	c #CBE1BE",
"_+	c #FCFDFD",
":+	c #ECF3E5",
"<+	c #9BC175",
"[+	c #ECF4E6",
"}+	c #DBECD4",
"|+	c #DBEBD2",
"1+	c #DBEAD2",
"2+	c #E6F0E1",
"3+	c #F4F7F0",
"4+	c #BDD3A2",
"5+	c #FDFEFE",
"6+	c #FDFDFD",
"7+	c #FDFEFF",
"8+	c #EAF0E1",
"9+	c #A3C883",
"0+	c #B6D29B",
"a+	c #B7D19C",
"b+	c #FDFEFC",
"c+	c #EFF5E9",
"d+	c #AFCD8D",
"e+	c #9DC37B",
"f+	c #FDFDFC",
"g+	c #E6EFDC",
"h+	c #C8DDB4",
"i+	c #A4C783",
"j+	c #9EC47A",
"k+	c #FEFDFE",
"l+	c #E1ECD6",
"m+	c #CADFBA",
"n+	c #CADFB8",
"o+	c #C9DFB6",
"p+	c #C8DEB5",
"q+	c #B5D09B",
"r+	c #A9CA88",
"s+	c #A5C681",
"t+	c #A0C37D",
"u+	c #D0E1BE",
"v+	c #99C072",
"w+	c #A2C680",
"x+	c #9FC47C",
"y+	c #B3D097",
"z+	c #9DC277",
"A+	c #A5C782",
"B+	c #F2F7EE",
"C+	c #B7D29C",
"D+	c #A6C782",
"E+	c #A6C783",
"F+	c #B0CC92",
"G+	c #E9F0E0",
". + @ # $ $ $ $ $ $ $ $ $ $ $ $ $ $ $ $ $ $ $ $ $ $ $ $ $ $ $ $ $ $ $ $ $ $ $ $ $ $ $ $ $ # % & ",
"+ * # # $ $ $ $ $ $ $ $ $ $ $ $ $ $ $ $ $ $ $ $ $ $ $ $ $ $ $ $ $ $ $ $ $ $ $ $ $ $ $ $ = - ; > ",
"# # , $ # $ $ $ $ $ $ $ $ $ $ $ $ $ $ $ $ $ $ $ $ $ $ $ $ $ $ $ $ $ $ $ $ $ $ $ $ $ $ $ - ' ' # ",
"# # $ $ $ $ $ $ $ $ $ $ $ $ $ $ $ $ $ $ $ $ $ $ $ $ $ $ $ $ $ $ $ $ $ $ $ $ $ $ $ $ $ $ $ $ $ # ",
"$ $ # $ $ $ $ $ $ $ $ $ $ $ $ = = $ = $ $ $ $ $ $ $ $ $ $ $ $ $ $ $ $ $ $ $ $ $ $ $ $ $ $ $ $ ) ",
"$ $ $ $ $ $ $ $ $ $ $ $ $ $ $ - ! ~ { ) ] ] ] ] ] ] ] ] ] ] ] ] ] ] ] ] ] ] ] ] ] ] ] ] ] ^ / ( ",
"$ $ $ $ $ $ $ $ $ $ $ ' _ # ; : < [ } | 1 1 1 1 1 1 1 1 1 1 1 1 1 1 1 1 1 1 1 1 1 1 1 1 1 | 2 3 ",
"$ $ $ $ $ $ $ $ $ - = $ 4 5 6 7 8 9 9 9 9 9 9 9 9 9 9 9 9 9 9 9 9 9 9 9 9 9 9 9 9 9 9 9 9 9 9 0 ",
"$ $ $ $ $ $ $ $ $ $ ! 4 a b 8 c 9 d 9 9 e 9 9 9 9 9 9 9 9 9 9 9 9 9 9 9 9 9 9 9 9 9 9 9 9 9 9 9 ",
"$ $ $ $ $ $ $ - $ = f g h i d j c 9 9 9 9 9 9 9 9 9 9 9 9 9 9 9 9 9 9 9 9 9 9 9 9 9 9 9 9 9 9 9 ",
"$ $ $ $ $ $ $ $ # k l m 0 n c 9 9 9 9 9 9 9 9 9 9 9 9 9 9 9 9 9 9 9 9 9 9 9 9 9 9 9 9 9 9 9 9 9 ",
"$ $ $ $ $ $ $ , o p q r s 9 j 9 9 9 9 9 9 9 9 9 9 9 9 9 9 9 9 9 9 9 9 9 9 9 9 9 9 9 9 9 9 9 9 9 ",
"$ $ $ $ $ $ $ $ t u 9 c j c 9 d n v w x y y y y y y y y y y y y y y y y y y y y y y y y y z A B ",
"$ $ $ $ $ $ $ = C D 9 9 9 d 9 d E F G H I I I I I I I I I I I I I I I I I I I I I I I I I J K L ",
"$ $ $ $ $ $ $ $ M N i 9 j 9 O v P Q Q R R R R R R R R R R R R R R R R R R R R R R R R R R R Q S ",
"$ $ $ $ $ $ $ $ T 9 n 9 9 j O U V W S S S S S S S S S S S S S S S S S S S S S S S S S S S S S S ",
"$ $ $ $ $ $ $ $ X 9 0 i j c j Y Z S Q S S S S S S S S S S S S S S S S S S S S S S S S S S S S S ",
"$ $ $ $ $ $ $ $ X 9 ` 9 i e r  .Z S ..S S S S S S S S S S S S S S S S S S S S S S S S S S S S S ",
"$ $ $ $ $ $ $ $ +.9 r 9 e i 0 @.#.Q $.Q %.%.Q ..............R ..S S S S S S S S S S S S S S S S ",
"$ $ $ $ $ $ $ = &.*.9 9 9 i d =.-.;.>.,.>.'.).!.!.!.!.!.~.{.{.].^.S S S S S S S S S S S S S S S ",
"$ $ $ $ $ $ $ /.(._.9 9 i 0 9 d :.<.[.}.|.1.2.3.3.3.3.3.4.5.6.7.>.%.S S Q S S S S S S S S S S S ",
"$ $ $ $ $ $ $ , o 8.e 9 r e 9 9 9 9 9 9 9 9 9 9 9 9 9 9 9 9 9 9.0.a.b.c.S S S ].S S S S S S S S ",
"$ $ $ $ $ $ $ - = d.e.9 0 i 9 9 9 9 9 9 9 9 9 9 9 9 9 9 9 e d i 9 9 f.g.h.Q i.$.S S S S S S S S ",
"$ $ $ $ $ $ $ = - # j.k.9 0 9 9 d 9 9 9 9 9 9 9 9 9 9 9 e r c i e 0 i l.m.n.o.S S S S S S S S S ",
"$ $ $ $ $ $ $ $ $ $ k p.q.d c ` 9 9 9 9 9 9 9 9 9 9 9 9 9 9 9 9 9 i 9 n B r.Q %.S S S S S S S S ",
"$ $ $ $ $ $ $ $ $ $ s.; t.u.v.9 9 9 9 9 9 9 9 9 9 9 9 9 9 9 9 9 9 i 0 9 9 w.x.S R S S S S S S S ",
"$ $ $ $ $ $ $ $ $ $ # # # = : y.z.A.9 9 9 9 9 9 9 9 9 9 9 9 9 e B.C.i 9 d 9 D.E.S %.S S S S S S ",
"$ $ $ $ $ $ $ $ $ $ $ $ ' /.F.G.H.I.J.K.L.L.L.L.M.N.) O.P.Q.R.S.T.d 9 9 j 9 U.V.%.^.S S S S S S ",
"$ $ $ $ $ $ $ $ $ $ $ $ /.' $ ' ' W.# # # # # # # # # # s.- X.Y.Z.r 9 9 c 0 9 `.Q S S S S S S S ",
"$ $ $ $ $ $ $ $ $ $ $ $ $ $ ' /./._ $ , /.$ $ $ $ , $ $ $ _ $  +.+9 9 9 j r 9 ++{.R S S S S S S ",
"$ $ $ $ $ $ $ $ $ $ $ $ $ $ $ $ $ $ $ $ $ $ $ $ $ $ $ $ $ $ $ @+#+9 j 9 9 9 9 $+%+].S S S S S S ",
"$ $ $ $ $ $ $ $ $ $ $ $ $ $ $ $ $ $ $ $ $ $ $ $ $ $ $ $ $ $ = &+*+9 i 9 9 9 9 =+).].S S S S S S ",
"# $ ' $ $ $ $ $ $ $ $ $ $ $ $ $ $ $ $ $ $ $ $ $ $ $ $ $ = - $  +-+9 9 9 9 9 9 ;+).S S S S S S S ",
">+4 /.$ $ $ $ $ $ $ $ $ $ $ $ $ $ $ $ $ $ $ $ $ $ $ $ $ $ # k ,+'+d 9 9 r 9 9 )+..R S S S S S S ",
"!+~+{+]+]+]+]+]+]+]+]+]+]+]+]+]+]+]+]+]+]+]+]+]+]+]+]+]+]+^+/+(+_+d 9 9 e 9 :+<+%.^.S S S S S S ",
"T.[+b }+|+|+|+|+|+|+|+|+|+|+|+|+|+|+|+|+|+|+|+|+|+|+|+|+1+2+3+r d i 0 9 d 9 4+{.Q S S S S S S S ",
"5+6+7+i 9 9 9 9 9 9 9 9 9 9 9 9 9 9 9 9 9 9 9 9 9 9 9 9 r 5+` d 9 9 9 d i 8+9+^.S S S S S S S S ",
"9 9 9 9 r 9 9 9 9 9 9 9 9 9 9 9 9 9 9 9 9 9 9 9 9 9 9 9 9 9 9 9 d 9 9 O B 0+%+].S S S S S S S S ",
"9 9 9 9 9 9 9 9 9 9 9 9 9 9 9 9 9 9 9 9 9 9 9 9 9 9 9 9 9 9 9 9 9 d c 9 a+E.^.$.S S S S S S S S ",
"e e e c 9 9 9 9 9 9 9 9 9 9 9 9 9 9 9 9 9 9 9 9 9 9 9 9 r 9 c i 9 b+c+d+e+S %.S S S S S S S S S ",
"n 9 9 9 9 9 9 9 9 9 9 9 9 9 9 9 9 9 9 9 9 9 9 9 9 9 9 9 9 9 9 f+g+h+i+j+S Q S S S S S S S S S S ",
"k+l+m+n+o+o+o+o+o+o+o+o+o+o+o+o+o+o+o+o+o+o+o+o+o+o+o+o+o+p+q+r+s+t+W %.%.S S S S S S S S S S S ",
"u+v+).).).).).).).).).).).).).).).).).).).).).).).).).).).).Q S S %.S ^.S S S S S S S S S S S S ",
"w+W $.S S S S S S S S S S S S S S S S S S S S S S S S S S S S S S S S S S S S S S S S S S S S S ",
"Q S R S S S S S S S S S S S S S S S S S S S S S S S S S S S S S S S S S S S S S S S S S S S ].S ",
"^.Q %.S S S S S S S S S S S S S S S S S S S S S S S S S S S S S S S S S S S S S S S S S S S S x+",
"y+z+Q Q Q Q Q Q Q Q Q Q Q Q Q Q Q Q Q Q Q Q Q Q Q Q Q Q Q Q Q Q Q Q Q Q Q Q Q Q Q Q Q Q Q Q E.A+",
"B+C+D+E+E+E+E+E+E+E+E+E+E+E+E+E+E+E+E+E+E+E+E+E+E+E+E+E+E+E+E+E+E+E+E+E+E+E+E+E+E+E+E+E+E+D+F+G+"};
